<?xml version="1.0" encoding="UTF-8"?>
<svg width="507px" height="247px" viewBox="0 0 507 247" version="1.1" xmlns="http://www.w3.org/2000/svg" xmlns:xlink="http://www.w3.org/1999/xlink">
    <title>Group</title>
    <g id="Page-1" stroke="none" stroke-width="1" fill="none" fill-rule="evenodd">
        <g id="Card-Front" transform="translate(-289.000000, -194.000000)" fill="#FFFFFF" fill-rule="nonzero">
            <g id="Group" transform="translate(289.440595, 194.000000)">
                <path d="M96.1031608,3.81561012 L96.1031608,28.0559568 L112.532729,28.0559568 L121.869752,10.9979351 L108.223334,10.9979351 L108.223334,13.6913069 L101.489905,13.6913069 L101.489905,3.81561012 L134.349041,3.81561012 L117.24613,35.2382817 L88.4719406,35.2382817 L88.4719406,3.81561012 L96.1031608,3.81561012 Z M165.547265,21.7714225 L191.977335,35.2382817 L176.156888,35.2382817 L163.823051,28.9537474 L145.571424,28.9537474 L145.571424,35.2382817 L137.940204,35.2382817 L137.940204,21.7714225 L165.547265,21.7714225 Z M213.040389,3.81561012 L213.040389,35.2382817 L203.254471,35.2382817 L182.964403,22.0856492 L187.184019,15.8460044 L205.409168,27.651951 L205.409168,3.81561012 L213.040389,3.81561012 Z M246.034194,21.7714225 L272.464264,35.2382817 L256.643817,35.2382817 L244.30998,28.9537474 L226.058353,28.9537474 L226.058353,35.2382817 L218.427132,35.2382817 L218.427132,21.7714225 L246.034194,21.7714225 Z M296.1758,3.81561012 L311.393351,32.0960146 L305.827049,35.2382817 L278.89333,35.2382817 L273.327029,32.0960146 L288.54458,3.81561012 L296.1758,3.81561012 Z M325.488664,3.81561012 L332.222093,17.2824694 L324.994879,17.2824694 L320.461036,8.30456321 L316.735205,8.30456321 L327.374024,28.0559568 L332.356762,28.0559568 L345.419615,3.81561012 L353.095725,3.81561012 L336.127482,35.2382817 L323.603303,35.2382817 L309.732438,9.51658054 C309.343249,8.82842053 309.148874,8.13982214 309.148874,7.45166212 C309.148874,6.46409244 309.485546,5.63363612 310.158889,4.96029316 C310.832232,4.2869502 311.707578,3.90538918 312.784926,3.81561012 L312.784926,3.81561012 L325.488664,3.81561012 Z M387.660664,3.81561012 L410.01565,26.215486 L410.01565,3.81561012 L417.64687,3.81561012 L417.64687,35.2382817 L408.354737,35.2382817 L376.976955,3.81561012 L387.660664,3.81561012 Z M373.296014,19.2127192 L397.805698,28.1457358 L395.202105,35.2382817 L370.692421,26.3052651 L373.296014,19.2127192 Z M292.36019,10.908156 L283.157836,28.0559568 L301.562544,28.0559568 L292.36019,10.908156 Z M365.889241,0 L369.79463,2.91781951 L363.869212,2.91781951 L363.869212,22.6692131 L356.686887,15.8460044 L356.686887,0 L365.889241,0 Z M145.571424,3.81561012 L145.571424,10.1001444 L163.823051,10.1001444 L176.156888,3.81561012 L191.977335,3.81561012 L165.547265,17.2824694 L137.940204,17.2824694 L137.940204,3.81561012 L145.571424,3.81561012 Z M226.058353,3.81561012 L226.058353,10.1001444 L244.30998,10.1001444 L256.643817,3.81561012 L272.464264,3.81561012 L246.034194,17.2824694 L218.427132,17.2824694 L218.427132,3.81561012 L226.058353,3.81561012 Z" id="Combined-Shape" opacity="0.503789993"></path>
                <path d="M116.864508,128.18451 L116.864508,152.776497 L118.205889,152.776497 L128.266248,142.716139 L137.655915,142.716139 L120.888651,159.483403 L105.239205,159.483403 L88.4719406,142.716139 L97.8616085,142.716139 L107.921967,152.776497 L109.263348,152.776497 L109.263348,128.18451 L116.864508,128.18451 Z M188.181271,152.32937 L188.181271,159.483403 L138.997297,159.483403 L138.997297,152.32937 L188.181271,152.32937 Z M229.040169,128.18451 L206.961044,159.483403 L198.206305,159.483403 L215.238702,135.338542 L192.652542,135.338542 L197.74979,128.18451 L229.040169,128.18451 Z M239.176547,128.18451 L249.897335,150.561428 L260.61856,128.18451 L278.586343,128.18451 L278.586343,135.338542 L274.115072,135.338542 L274.115072,159.483403 L266.513912,159.483403 L266.513912,135.338542 L265.619658,135.338542 L254.0516,159.483403 L245.743508,159.483403 L230.747766,128.18451 L239.176547,128.18451 Z M310.515231,146.069592 L336.841189,159.483403 L321.083061,159.483403 L308.797809,153.223624 L290.618077,153.223624 L290.618077,159.483403 L283.016917,159.483403 L283.016917,146.069592 L310.515231,146.069592 Z M372.746801,128.18451 L350.667676,159.483403 L341.912937,159.483403 L350.428917,147.410973 L337.253428,147.410973 L342.350676,140.25694 L355.475645,140.25694 L358.945334,135.338542 L336.359174,135.338542 L341.456422,128.18451 L372.746801,128.18451 Z M387.778784,128.18451 L410.045711,150.496149 L410.045711,128.18451 L417.64687,128.18451 L417.64687,159.483403 L408.391341,159.483403 L377.13716,128.18451 L387.778784,128.18451 Z M373.470718,143.520967 L397.883855,152.418796 L395.290518,159.483403 L370.877382,150.585575 L373.470718,143.520967 Z M179.238731,140.25694 L179.238731,147.410973 L147.49271,147.410973 L147.49271,140.25694 L179.238731,140.25694 Z M290.618077,128.18451 L290.618077,134.444288 L308.797809,134.444288 L321.083061,128.18451 L336.841189,128.18451 L310.515231,141.598321 L283.016917,141.598321 L283.016917,128.18451 L290.618077,128.18451 Z M188.181271,128.18451 L188.181271,135.338542 L138.997297,135.338542 L138.997297,128.18451 L188.181271,128.18451 Z" id="Combined-Shape" opacity="0.503789993"></path>
                <path d="M37.7175428,45.1234148 C43.2180178,45.1234148 48.3256017,45.9583083 53.0402946,47.6280953 C57.7549874,49.2978824 61.5856754,51.5406356 64.5323584,54.3563549 L64.5323584,54.3563549 L53.9242995,66.4377554 L53.6112144,66.0857265 C52.0150944,64.3457255 49.9585552,62.9078746 47.4415968,61.7721739 C44.7568412,60.5607597 41.7119354,59.9550527 38.3068794,59.9550527 C35.3601964,59.9550527 32.6426998,60.4952779 30.1543897,61.5757283 C27.6660796,62.6561788 25.5051787,64.1622612 23.671687,66.0939757 C21.8381954,68.0256901 20.4139652,70.3175547 19.3989966,72.9695694 C18.384028,75.6215841 17.8765437,78.5191558 17.8765437,81.6622844 C17.8765437,84.8708948 18.3349166,87.8175778 19.2516625,90.5023335 C20.1684083,93.1870891 21.5271566,95.4953241 23.3279073,97.4270386 C25.1286581,99.358753 27.3550408,100.864835 30.0070555,101.945286 C32.6590703,103.025736 35.6876056,103.565962 39.0926616,103.565962 C41.0571169,103.565962 42.9233495,103.418627 44.6913593,103.123959 C46.4593691,102.829291 48.0964153,102.354547 49.6024977,101.699729 L49.6024977,101.699729 L49.6024977,89.0289919 L36.3424241,89.0289919 L36.3424241,75.47425 L65.0234723,75.47425 L65.0234723,112.307788 L64.4166323,112.616391 C61.1484311,114.244147 57.372689,115.58188 53.089406,116.62959 C48.5384177,117.742781 43.578168,118.299377 38.2086567,118.299377 C32.6426998,118.299377 27.5187454,117.415372 22.8367935,115.647362 C18.1548416,113.879352 14.1277081,111.391042 10.7553931,108.182432 C7.38307804,104.973821 4.74743377,101.126763 2.84846026,96.6412564 C0.949486755,92.15575 0,87.1627593 0,81.6622844 C0,76.0963275 0.965857216,71.0542254 2.89757165,66.5359781 C4.82928608,62.0177308 7.49767127,58.1706724 10.9027272,54.9948029 C14.3077832,51.8189334 18.3021757,49.3797347 22.8859049,47.6772067 C27.469634,45.9746787 32.4135134,45.1234148 37.7175428,45.1234148 Z M483.331129,45.2216375 C487.26004,45.2216375 491.270803,45.9419378 495.363418,47.3825384 C499.456033,48.823139 503.041164,50.951299 506.118811,53.7670183 L506.118811,53.7670183 L495.412529,65.0626366 L495.137237,64.7232693 C493.734877,63.0484943 491.944038,61.7046457 489.76472,60.6917234 C487.440115,59.611273 485.197361,59.0710478 483.036461,59.0710478 C481.923269,59.0710478 480.793707,59.1692705 479.647775,59.3657161 C478.501843,59.5621616 477.470504,59.9386822 476.553758,60.4952779 C475.637012,61.0518736 474.8676,61.7721739 474.245523,62.6561788 C473.623445,63.5401837 473.312407,64.6697455 473.312407,66.0448643 C473.312407,67.2235375 473.557963,68.2057652 474.049077,68.9915473 C474.540191,69.7773295 475.260491,70.4648888 476.209978,71.0542254 C477.159465,71.643562 478.289027,72.1837873 479.598664,72.6749011 C480.908301,73.1660149 482.381642,73.6734992 484.018688,74.197354 C486.376035,74.9831361 488.831604,75.8507706 491.385396,76.8002574 C493.939188,77.7497441 496.263793,79.0102696 498.359212,80.5818339 C500.454631,82.1533982 502.1899,84.1014831 503.565019,86.4260886 C504.940138,88.7506941 505.627697,91.6482657 505.627697,95.1188035 C505.627697,99.1131961 504.891026,102.567363 503.417685,105.481306 C501.944343,108.395248 499.963518,110.801705 497.475207,112.700679 C494.986897,114.599652 492.138437,116.007512 488.929827,116.924258 C485.721216,117.841004 482.414383,118.299377 479.009327,118.299377 C474.032707,118.299377 469.219791,117.431742 464.57058,115.696473 C459.921369,113.961204 456.05794,111.489265 452.980294,108.280654 L452.980294,108.280654 L463.981244,97.0832589 L464.287298,97.4494701 C465.949494,99.3835636 468.090229,101.013133 470.709503,102.338177 C473.492482,103.746037 476.25909,104.449966 479.009327,104.449966 C480.253482,104.449966 481.464896,104.319003 482.643569,104.057075 C483.822243,103.795148 484.853582,103.369516 485.737587,102.780179 C486.621592,102.190843 487.325521,101.405061 487.849376,100.422833 C488.373231,99.4406053 488.635158,98.2619321 488.635158,96.8868134 C488.635158,95.5771765 488.307749,94.4639851 487.652931,93.5472393 C486.998112,92.6304934 486.064996,91.7955999 484.853582,91.0425587 C483.642168,90.2895175 482.136085,89.6019581 480.335334,88.9798806 C478.534584,88.357803 476.488276,87.6866141 474.196411,86.9663138 C471.970029,86.2460135 469.792757,85.3947495 467.664597,84.4125219 C465.536437,83.4302942 463.637464,82.1697687 461.967677,80.6309453 C460.29789,79.0921219 458.955512,77.2258893 457.940543,75.0322475 C456.925575,72.8386057 456.41809,70.1702205 456.41809,67.027092 C456.41809,63.1636631 457.203873,59.8568299 458.775437,57.1065924 C460.347001,54.3563549 462.409679,52.0972313 464.963471,50.3292214 C467.517263,48.5612116 470.398464,47.2679452 473.607075,46.4494221 C476.815685,45.6308991 480.057037,45.2216375 483.331129,45.2216375 Z M118.677865,46.9896473 L147.555359,116.531367 L128.893033,116.531367 L123.490781,102.878402 L96.5777427,102.878402 L91.4701588,116.531367 L73.200724,116.531367 L102.372886,46.9896473 L118.677865,46.9896473 Z M173.216264,46.9896473 L173.216264,101.896175 L200.129302,101.896175 L200.129302,116.531367 L156.321948,116.531367 L156.321948,46.9896473 L173.216264,46.9896473 Z M247.890329,46.9896473 L276.767823,116.531367 L258.105497,116.531367 L252.703245,102.878402 L225.790206,102.878402 L220.682622,116.531367 L202.413188,116.531367 L231.58535,46.9896473 L247.890329,46.9896473 Z M299.776713,46.9896473 L312.742118,68.5986562 L325.511078,46.9896473 L345.057409,46.9896473 L323.055509,79.7960518 L348.200537,116.531367 L327.475533,116.531367 L312.251004,91.975675 L297.615812,116.531367 L277.578367,116.531367 L301.937613,79.7960518 L279.542822,46.9896473 L299.776713,46.9896473 Z M368.753858,46.9896473 L383.585496,72.7240125 L398.417133,46.9896473 L418.061687,46.9896473 L391.345094,87.0645366 L391.345094,116.531367 L374.549001,116.531367 L374.549001,87.0645366 L348.421745,46.9896473 L368.753858,46.9896473 Z M110.230707,65.5537504 L101.390658,89.421883 L118.874311,89.421883 L110.230707,65.5537504 Z M239.443171,65.5537504 L230.603122,89.421883 L248.086775,89.421883 L239.443171,65.5537504 Z M444.410151,46.9896473 L435.471879,73.6080174 L423.09581,73.6080174 L430.167849,46.9896473 L444.410151,46.9896473 Z" id="Combined-Shape"></path>
                <path d="M481.91115,169.368536 C486.084885,169.368536 490.345572,170.133721 494.693212,171.66409 C499.040853,173.194459 502.849386,175.455232 506.118811,178.446409 L506.118811,178.446409 L494.745384,190.445896 L494.452937,190.085381 C492.963191,188.306245 491.060759,186.878657 488.745641,185.802616 C486.276181,184.654839 483.893674,184.08095 481.59812,184.08095 C480.415562,184.08095 479.215613,184.185294 477.998274,184.393981 C476.780935,184.602667 475.685329,185.00265 474.711458,185.593929 C473.737586,186.185208 472.92023,186.950393 472.259389,187.889483 C471.598547,188.828574 471.268127,190.028522 471.268127,191.489329 C471.268127,192.74145 471.528985,193.784883 472.050702,194.61963 C472.572419,195.454377 473.337604,196.184781 474.346256,196.810841 C475.354909,197.436901 476.554857,198.01079 477.946102,198.532507 C479.337347,199.054223 480.902498,199.593331 482.641554,200.149829 C485.145794,200.984576 487.754379,201.906275 490.467306,202.914928 C493.180234,203.92358 495.649693,205.262654 497.875685,206.932148 C500.101677,208.601641 501.945076,210.671118 503.405883,213.140578 C504.866691,215.610037 505.597094,218.688167 505.597094,222.374966 C505.597094,226.618263 504.814519,230.287671 503.249368,233.383191 C501.684218,236.478711 499.57996,239.035123 496.936595,241.052428 C494.29323,243.069733 491.267272,244.565321 487.858722,245.539193 C484.450172,246.513064 480.937279,247 477.320042,247 C472.033311,247 466.920487,246.0783 461.981567,244.234901 C457.042648,242.391501 452.938476,239.765527 449.66905,236.356977 L449.66905,236.356977 L461.355507,224.461833 L461.680632,224.850864 C463.446406,226.905478 465.720538,228.636591 468.503028,230.044203 C471.459423,231.539791 474.398428,232.287585 477.320042,232.287585 C478.641725,232.287585 479.928626,232.148461 481.180747,231.870212 C482.432867,231.591963 483.528472,231.139808 484.467563,230.513748 C485.406653,229.887688 486.154447,229.052941 486.710945,228.009507 C487.267443,226.966074 487.545692,225.713953 487.545692,224.253146 C487.545692,222.861901 487.197881,221.679343 486.502258,220.705472 C485.806636,219.7316 484.815374,218.844682 483.528472,218.044716 C482.241571,217.24475 480.641639,216.514347 478.728677,215.853505 C476.815716,215.192664 474.641896,214.479651 472.207217,213.714466 C469.842101,212.949282 467.529156,212.044972 465.268383,211.001539 C463.00761,209.958105 460.990305,208.619032 459.216468,206.984319 C457.442631,205.349606 456.016605,203.367083 454.93839,201.036747 C453.860175,198.706412 453.321068,195.871751 453.321068,192.532763 C453.321068,188.428591 454.155815,184.915697 455.825309,181.994083 C457.494803,179.072469 459.686013,176.672571 462.398941,174.794391 C465.111868,172.91621 468.172607,171.542356 471.581157,170.672828 C474.989707,169.8033 478.433038,169.368536 481.91115,169.368536 Z M59.5800619,171.246716 L59.5800619,186.480848 L38.7113887,186.480848 L38.7113887,245.121819 L20.8686732,245.121819 L20.8686732,186.480848 L0,186.480848 L0,171.246716 L59.5800619,171.246716 Z M88.718166,171.246716 L88.718166,199.210738 L117.516935,199.210738 L117.516935,171.246716 L135.35965,171.246716 L135.35965,245.121819 L117.516935,245.121819 L117.516935,214.236183 L88.718166,214.236183 L88.718166,245.121819 L70.8754504,245.121819 L70.8754504,171.246716 L88.718166,171.246716 Z M181.923097,171.246716 L182.740247,171.253199 C186.002675,171.305062 189.191013,171.668103 192.305262,172.342322 C195.67903,173.072725 198.704988,174.307455 201.383134,176.046511 C204.061281,177.785567 206.20032,180.081121 207.800251,182.933173 C209.400183,185.785225 210.200149,189.3329 210.200149,193.576197 C210.200149,198.584678 208.843685,202.793194 206.130758,206.201744 C203.51472,209.48856 199.928449,211.869825 195.371945,213.345538 L194.861674,213.50578 L214.165197,245.121819 L193.296524,245.121819 L177.331989,215.801334 L171.280073,215.801334 L171.280073,245.121819 L153.750388,245.121819 L153.750388,171.246716 L181.923097,171.246716 Z M275.754088,171.246716 L275.754088,186.376504 L243.303301,186.376504 L243.303301,200.254172 L273.98025,200.254172 L273.98025,214.549213 L243.303301,214.549213 L243.303301,229.887688 L277.632268,229.887688 L277.632268,245.121819 L226.086645,245.121819 L226.086645,171.246716 L275.754088,171.246716 Z M331.81278,171.246716 L362.48973,245.121819 L342.66449,245.121819 L336.925605,230.618092 L308.335523,230.618092 L302.909668,245.121819 L283.501802,245.121819 L314.491781,171.246716 L331.81278,171.246716 Z M398.514496,171.246716 L399.4919,171.253849 C404.374843,171.325178 409.196648,171.93147 413.957314,173.072725 C419.035358,174.290065 423.556904,176.30737 427.521951,179.124641 C431.486999,181.941911 434.686863,185.715663 437.121541,190.445896 C439.55622,195.176128 440.773559,201.019357 440.773559,207.975581 C440.773559,214.44487 439.57361,220.02724 437.173713,224.722691 C434.773815,229.418143 431.608733,233.278847 427.678467,236.304805 C423.7482,239.330763 419.313607,241.556754 414.374687,242.98278 C409.710152,244.329583 404.98357,245.040395 400.194939,245.115217 L399.349243,245.121819 L371.802594,245.121819 L371.802594,171.246716 L398.514496,171.246716 Z M398.097122,186.480848 L389.227936,186.480848 L389.227936,229.679001 L397.679749,229.679001 C400.879612,229.679001 403.957741,229.3138 406.914137,228.583396 C409.870532,227.852992 412.479116,226.653044 414.739889,224.98355 C417.000662,223.314056 418.80928,221.088064 420.165744,218.305574 C421.522208,215.523085 422.20044,212.079754 422.20044,207.975581 C422.20044,203.801847 421.522208,200.341125 420.165744,197.593416 C418.80928,194.845708 417.000662,192.654497 414.739889,191.019784 C412.479116,189.385072 409.905313,188.219904 407.01848,187.524282 C404.131647,186.828659 401.157861,186.480848 398.097122,186.480848 Z M322.839251,190.967613 L313.448348,216.32305 L332.021467,216.32305 L322.839251,190.967613 Z M180.670976,185.646101 L171.17573,185.646101 L171.17573,202.862756 L179.627543,202.862756 C181.08835,202.862756 182.583938,202.741022 184.114307,202.497554 C185.644677,202.254087 187.035922,201.819323 188.288042,201.193262 C189.540162,200.567202 190.566205,199.662893 191.366171,198.480335 C192.166137,197.297777 192.56612,195.767407 192.56612,193.889227 C192.56612,192.150171 192.200918,190.741535 191.470515,189.663321 C190.740111,188.585106 189.801021,187.750359 188.653244,187.15908 C187.505467,186.567801 186.218565,186.167818 184.792539,185.959131 C183.366513,185.750444 181.992659,185.646101 180.670976,185.646101 Z" id="Combined-Shape"></path>
            </g>
        </g>
    </g>
</svg>
